<svg width="64" height="64" viewBox="0 0 64 64" fill="none" xmlns="http://www.w3.org/2000/svg">
<path d="M52.42 11.407C46.949 5.982 39.704 3 32.005 3C31.963 3 31.92 3 31.878 3C24.132 3.033 16.861 6.08 11.407 11.581C5.953 17.082 2.967 24.377 3 32.123C3.033 39.869 6.08 47.139 11.58 52.593C17.051 58.018 24.296 61 31.995 61C32.037 61 32.08 61 32.122 61C39.868 60.967 47.139 57.92 52.593 52.419C58.047 46.918 61.033 39.623 61 31.877C60.967 24.131 57.92 16.861 52.42 11.407ZM32.114 59C30.814 59.004 29.529 58.914 28.263 58.739V38.626H22.077V32.054H28.263V27.681C28.263 20.441 31.79 17.263 37.807 17.263C40.689 17.263 42.212 17.477 42.934 17.574V23.31H38.83C36.276 23.31 35.384 25.732 35.384 28.462V32.054H42.87L41.854 38.626H35.384V58.783C34.307 58.917 33.217 58.995 32.114 59ZM51.173 51.011C47.356 54.861 42.583 57.419 37.384 58.465V40.626H41.854C42.841 40.626 43.68 39.907 43.831 38.932L44.831 32.464C44.859 32.332 44.873 32.195 44.873 32.055C44.873 30.95 43.98 30.055 42.876 30.055H42.871H37.385V28.463C37.385 27.286 37.573 25.311 38.831 25.311H42.935C44.04 25.311 44.935 24.416 44.935 23.311V17.575C44.935 16.574 44.195 15.727 43.202 15.593C42.382 15.482 40.767 15.264 37.808 15.264C30.364 15.264 26.264 19.674 26.264 27.682V30.055H22.078C20.973 30.055 20.078 30.95 20.078 32.055V38.627C20.078 39.732 20.973 40.627 22.078 40.627H26.264V58.383C21.282 57.309 16.696 54.849 12.99 51.174C7.867 46.095 5.03 39.326 5 32.114C4.97 24.902 7.749 18.11 12.827 12.989C17.905 7.868 24.674 5.031 31.886 5C31.926 5 31.965 5 32.005 5C39.172 5 45.918 7.777 51.011 12.827C56.133 17.905 58.97 24.674 59 31.886C59.03 39.098 56.251 45.89 51.173 51.011ZM52.834 43.914C52.833 43.915 52.832 43.917 52.832 43.917C52.556 44.394 51.948 44.559 51.469 44.285L49.733 43.293C49.254 43.019 49.087 42.408 49.361 41.929C49.362 41.927 49.363 41.926 49.364 41.925C49.64 41.448 50.248 41.283 50.727 41.557L52.463 42.549C52.942 42.824 53.109 43.434 52.834 43.914ZM55.059 38.478C55.036 38.566 55.002 38.648 54.958 38.725C54.738 39.106 54.284 39.309 53.838 39.191L51.904 38.681C51.369 38.541 51.052 37.994 51.192 37.459C51.334 36.929 51.879 36.606 52.414 36.747L54.347 37.256C54.881 37.396 55.199 37.943 55.059 38.478ZM44.994 50.817C45.181 51.137 45.168 51.521 44.995 51.821C44.911 51.967 44.788 52.093 44.633 52.184C44.155 52.461 43.543 52.3 43.265 51.824L42.258 50.096C41.98 49.619 42.141 49.007 42.618 48.729C43.095 48.45 43.708 48.611 43.987 49.09L44.994 50.817ZM55.803 32.652C55.803 32.836 55.755 33.008 55.669 33.156C55.497 33.454 55.176 33.654 54.806 33.656L52.806 33.664C52.254 33.666 51.804 33.221 51.802 32.669C51.799 32.114 52.244 31.667 52.798 31.664L54.799 31.657C55.352 31.655 55.801 32.1 55.803 32.652ZM49.272 47.176C49.602 47.503 49.656 48.003 49.435 48.386C49.392 48.46 49.339 48.528 49.278 48.591C48.889 48.983 48.256 48.986 47.864 48.596L46.444 47.187C46.051 46.797 46.057 46.159 46.439 45.773C46.828 45.381 47.461 45.379 47.853 45.768L49.272 47.176ZM27.16 9.613C27.251 9.993 27.111 10.377 26.83 10.613C26.715 10.71 26.578 10.782 26.422 10.819C25.678 10.998 24.94 11.219 24.226 11.477C23.705 11.664 23.132 11.395 22.946 10.876C22.758 10.356 23.029 9.783 23.547 9.596C24.331 9.314 25.14 9.071 25.953 8.876C26.491 8.746 27.031 9.076 27.16 9.613ZM20.82 11.895C21.106 12.367 20.96 12.974 20.482 13.269C16.39 15.75 13.24 19.579 11.614 24.053C11.552 24.224 11.449 24.367 11.319 24.476C11.054 24.699 10.681 24.779 10.335 24.652C9.815 24.464 9.548 23.89 9.736 23.37C11.516 18.469 14.963 14.274 19.446 11.557C19.919 11.272 20.535 11.423 20.82 11.895Z" fill="black"/>
</svg>
