<svg width="64" height="64" viewBox="0 0 64 64" fill="none" xmlns="http://www.w3.org/2000/svg">
<path d="M10.957 2.01367C8.90144 2.05754 7 3.67966 7 5.92578V58.0742C7 61.069 10.3807 62.9533 13 61.4687L27.8359 53.0605C27.9138 53.0283 27.9873 52.9863 28.0547 52.9355L59.0039 35.3945C61.6089 33.9183 61.6089 30.0817 59.0039 28.6055L55.457 26.5957C53.2132 16.5384 44.2259 9 33.5 9C31.0301 9 28.6545 9.40656 26.4297 10.1445L13 2.53125C12.3452 2.1601 11.6422 1.99904 10.957 2.01367ZM10.9609 3.98828C11.3081 3.98787 11.669 4.07613 12.0137 4.27148L24.041 11.0898C16.3468 14.6683 11 22.4672 11 31.5C11 40.9237 16.811 48.9985 25.0508 52.3398L12.0137 59.7285C10.635 60.5099 9 59.5854 9 58.0742V5.92578C9 4.7924 9.91947 3.98948 10.9609 3.98828ZM33.5 11C44.8291 11 54 20.1709 54 31.5C54 33.1436 53.7973 34.7328 53.4316 36.2539L47.0664 39.8613C47.4345 39.2639 47.7793 38.6464 48.0723 37.9883C51.6448 29.9619 48.0147 20.5033 39.9883 16.9297C39.1773 16.568 38.3511 16.2819 37.5195 16.0644C37.423 16.0373 37.3229 16.0248 37.2227 16.0273C36.981 16.0347 36.7502 16.1293 36.5729 16.2937C36.3956 16.4581 36.2839 16.6811 36.2584 16.9215C36.2329 17.1619 36.2954 17.4035 36.4342 17.6014C36.5731 17.7993 36.7789 17.9402 37.0137 17.998C37.7422 18.1886 38.4648 18.4396 39.1738 18.7559C46.2094 21.8883 49.3756 30.1382 46.2441 37.1738C43.1128 44.2091 34.8617 47.3765 27.8262 44.2441C24.2368 42.6456 21.6602 39.7177 20.4062 36.293C20.3151 36.0438 20.1287 35.8411 19.888 35.7294C19.6474 35.6176 19.3722 35.6061 19.123 35.6973C18.8739 35.7884 18.6712 35.9748 18.5594 36.2155C18.4477 36.4561 18.4362 36.7313 18.5273 36.9805C19.9594 40.8918 22.9171 44.2468 27.0117 46.0703C29.1904 47.0403 31.4731 47.463 33.7168 47.4277L27.3438 51.0391C19.0343 48.4277 13 40.6813 13 31.5C13 20.1709 22.1709 11 33.5 11ZM33.2695 14.541C33.0046 14.5487 32.7536 14.6612 32.5716 14.8538C32.3896 15.0465 32.2915 15.3034 32.2988 15.5684L32.3262 17.5684C32.3301 17.8335 32.4392 18.0863 32.6295 18.2711C32.8198 18.4558 33.0756 18.5574 33.3408 18.5535C33.606 18.5496 33.8588 18.4406 34.0436 18.2503C34.2284 18.0601 34.33 17.8042 34.3262 17.5391L34.2988 15.541C34.2989 15.4072 34.2721 15.2747 34.22 15.1515C34.1679 15.0282 34.0916 14.9166 33.9956 14.8234C33.8996 14.7301 33.7859 14.6571 33.6612 14.6086C33.5365 14.5601 33.4033 14.5371 33.2695 14.541ZM28.1465 15.4609C27.99 15.4693 27.8376 15.5143 27.7017 15.5923C27.5658 15.6703 27.4501 15.7792 27.364 15.9102C27.2779 16.0411 27.2238 16.1905 27.206 16.3462C27.1883 16.5019 27.2073 16.6596 27.2617 16.8066L27.9258 18.6934C27.9695 18.8173 28.0372 18.9313 28.125 19.0291C28.2128 19.1268 28.319 19.2063 28.4375 19.263C28.5561 19.3197 28.6846 19.3525 28.8158 19.3595C28.947 19.3665 29.0783 19.3476 29.2022 19.3039C29.3261 19.2601 29.4402 19.1924 29.5379 19.1046C29.6356 19.0168 29.7151 18.9105 29.7718 18.792C29.8284 18.6735 29.8612 18.5449 29.8682 18.4137C29.8752 18.2825 29.8563 18.1512 29.8125 18.0273L29.1465 16.1406C29.0822 15.9499 28.9619 15.783 28.8013 15.6617C28.6406 15.5404 28.4471 15.4705 28.2461 15.4609C28.2129 15.4593 28.1797 15.4593 28.1465 15.4609ZM23.6797 17.9512C23.4892 17.947 23.3016 17.9974 23.1388 18.0963C22.976 18.1952 22.8448 18.3385 22.7607 18.5094C22.6766 18.6803 22.643 18.8717 22.6639 19.061C22.6849 19.2503 22.7595 19.4297 22.8789 19.5781L24.1113 21.1543C24.1922 21.2578 24.2928 21.3444 24.4071 21.409C24.5215 21.4737 24.6475 21.5152 24.7779 21.5312C24.9083 21.5471 25.0406 21.5373 25.1672 21.5021C25.2938 21.4669 25.4122 21.4072 25.5157 21.3263C25.6192 21.2453 25.7058 21.1448 25.7704 21.0304C25.8351 20.9161 25.8765 20.7901 25.8925 20.6597C25.9084 20.5292 25.8986 20.397 25.8634 20.2704C25.8282 20.1438 25.7684 20.0254 25.6875 19.9219L24.4551 18.3457C24.3639 18.2258 24.2468 18.128 24.1125 18.0597C23.9783 17.9914 23.8303 17.9543 23.6797 17.9512ZM20.1426 21.7637C19.9264 21.7651 19.7165 21.8365 19.5443 21.9673C19.3721 22.0981 19.247 22.2811 19.1876 22.489C19.1282 22.6969 19.1378 22.9184 19.2149 23.1204C19.292 23.3224 19.4324 23.4939 19.6152 23.6094L21.2891 24.7031C21.3989 24.7791 21.5228 24.8323 21.6536 24.8597C21.7843 24.887 21.9192 24.8878 22.0503 24.8622C22.1814 24.8365 22.306 24.7848 22.4168 24.7102C22.5276 24.6356 22.6223 24.5396 22.6953 24.4278C22.7684 24.316 22.8183 24.1906 22.8422 24.0592C22.866 23.9278 22.8633 23.7929 22.8342 23.6626C22.805 23.5322 22.7501 23.409 22.6726 23.3003C22.595 23.1915 22.4965 23.0994 22.3828 23.0293L20.709 21.9355C20.5419 21.8224 20.3444 21.7625 20.1426 21.7637ZM34 25V28V32.3496C33.544 32.1316 33.039 32 32.5 32C30.567 32 29 33.567 29 35.5C29 37.433 30.567 39 32.5 39C34.389 39 35.9183 37.5 35.9863 35.6269L36 35.625V28H39V25H36H34ZM18.0156 26.5C17.7743 26.5081 17.544 26.6034 17.3673 26.768C17.1907 26.9327 17.0796 27.1558 17.0546 27.396C17.0296 27.6362 17.0924 27.8774 17.2313 28.0749C17.3703 28.2724 17.576 28.413 17.8105 28.4707L19.7461 28.9727C19.8744 29.0094 20.0087 29.02 20.1412 29.004C20.2737 28.988 20.4016 28.9457 20.5175 28.8795C20.6333 28.8133 20.7348 28.7246 20.8158 28.6185C20.8968 28.5125 20.9559 28.3914 20.9894 28.2622C21.0228 28.133 21.0302 27.9985 21.0109 27.8664C20.9915 27.7344 20.946 27.6076 20.8769 27.4934C20.8078 27.3792 20.7166 27.2801 20.6086 27.2017C20.5006 27.1233 20.378 27.0674 20.248 27.0371L18.3125 26.5352C18.2159 26.5086 18.1158 26.4968 18.0156 26.5ZM55.873 29.1309L58.0176 30.3457C59.3866 31.1215 59.3866 32.8785 58.0176 33.6543L55.7246 34.9551C55.9 33.8286 56 32.6775 56 31.5C56 30.7 55.9548 29.9094 55.873 29.1309ZM19.5879 31.5117C19.5644 31.5122 19.541 31.5135 19.5176 31.5156L17.5234 31.6641C17.3903 31.6709 17.2599 31.7042 17.1398 31.7621C17.0198 31.82 16.9125 31.9014 16.8244 32.0013C16.7362 32.1013 16.6689 32.2179 16.6264 32.3443C16.584 32.4706 16.5672 32.6042 16.5771 32.7371C16.587 32.87 16.6234 32.9996 16.6841 33.1183C16.7448 33.237 16.8286 33.3423 16.9306 33.4281C17.0326 33.5139 17.1507 33.5785 17.278 33.618C17.4053 33.6575 17.5392 33.6712 17.6719 33.6582L19.668 33.5098C19.9286 33.4932 20.1725 33.3753 20.3473 33.1813C20.5222 32.9873 20.6143 32.7326 20.6038 32.4716C20.5934 32.2106 20.4812 31.9641 20.2914 31.7847C20.1015 31.6054 19.849 31.5074 19.5879 31.5117Z" fill="white"/>
</svg>
