<svg width="64" height="64" viewBox="0 0 64 64" fill="none" xmlns="http://www.w3.org/2000/svg">
<path d="M13 6C9.14821 6 6 9.14821 6 13V51C6 54.8518 9.14821 58 13 58H51C54.8518 58 58 54.8518 58 51V13C58 9.14821 54.8518 6 51 6H13ZM13 8H51C53.7682 8 56 10.2318 56 13V51C56 53.7682 53.7682 56 51 56H13C10.2318 56 8 53.7682 8 51V13C8 10.2318 10.2318 8 13 8ZM33.5 11C30.9537 11 29.2133 12.208 28.252 13.5391C27.2906 14.8702 27 16.1667 27 17C27 17.3232 27.1192 17.6024 27.1699 17.9102C24.6595 17.9977 22.9344 19.3467 21.9062 20.6836C21.3024 21.4687 20.851 22.2253 20.5078 22.6602C20.3436 22.8682 20.2152 22.9805 20.166 23.0137C19.957 22.9785 19.7421 23.0107 19.5526 23.1056C19.363 23.2005 19.2085 23.3532 19.1113 23.5416C19.0142 23.7301 18.9794 23.9445 19.0121 24.154C19.0447 24.3634 19.1431 24.5571 19.293 24.707C19.4197 24.8337 19.6288 24.8399 19.7695 24.9492L19.7578 24.9707C19.7721 24.9743 19.7844 24.9617 19.7988 24.9648C21.1611 26.0063 23.0561 26.3632 24.9531 25.8398C25.0378 25.8165 25.1182 25.7787 25.1992 25.7402C24.8544 25.9738 24.5281 26.2322 24.2422 26.5469L17.9023 33.5195C16.6333 34.9151 16.7967 37.1254 18.2559 38.3203L26.4023 44.9844C27.204 45.6407 28.2081 46 29.2441 46H36.6738C37.7729 46 38.8328 45.5961 39.6543 44.8672C39.6549 44.8672 39.6556 44.8672 39.6562 44.8672L46.6348 38.6641C47.5031 37.8925 48 36.7844 48 35.623V32.7129C48 31.9011 47.5381 31.1505 46.8125 30.7871H46.8105L46.1914 30.4766C45.366 30.0629 44.3572 30.2269 43.7051 30.8809L42.6328 31.9551C42.2271 32.3589 42 32.9071 42 33.4766V35.5L40 37V32.7715C40 30.1018 38.4662 27.7465 36.1523 26.5156L36.8555 23.7051C38.0783 23.374 39.1371 22.5745 39.4551 21.3027L39.9707 19.2422C40.0168 19.0577 40.0093 18.864 39.9492 18.6836L39.4961 17.3223C39.5184 16.9781 39.5687 15.7898 38.9883 14.3711C38.3177 12.7318 36.5833 11 33.5 11ZM33.5 13C35.9167 13 36.6823 14.0182 37.1367 15.1289C37.5911 16.2396 37.5039 17.4102 37.5039 17.4102C37.4914 17.5474 37.5073 17.6857 37.5508 17.8164L37.959 19.0391L37.5156 20.8184C37.3408 21.5178 36.7211 22 36 22C35.7768 21.9999 35.5601 22.0745 35.3842 22.2118C35.2083 22.3491 35.0834 22.5413 35.0293 22.7578L34.0293 26.7578C33.9701 26.9959 34.0004 27.2474 34.1146 27.4646C34.2288 27.6817 34.4187 27.8493 34.6484 27.9355C36.6672 28.6924 38 30.615 38 32.7715V39C37.9999 39.1857 38.0516 39.3677 38.1492 39.5257C38.2467 39.6837 38.3864 39.8115 38.5524 39.8946C38.7185 39.9777 38.9044 40.013 39.0893 39.9964C39.2743 39.9798 39.451 39.9121 39.5996 39.8008L43.5996 36.8008C43.724 36.7076 43.8249 36.5867 43.8944 36.4477C43.9639 36.3087 44.0001 36.1554 44 36V33.4766C44 33.436 44.0147 33.3992 44.043 33.3711C44.0436 33.3704 44.0443 33.3698 44.0449 33.3691L45.1211 32.2949C45.1217 32.2943 45.1224 32.2936 45.123 32.293C45.1709 32.2449 45.2343 32.2353 45.2949 32.2656L45.916 32.5762C45.9696 32.6031 46 32.6512 46 32.7129V35.623C46 36.2137 45.7483 36.7755 45.3066 37.168L38.3262 43.3711C37.8699 43.7753 37.2821 44 36.6738 44H29.2441C28.6702 44 28.1143 43.8013 27.6699 43.4375L19.5234 36.7715C18.9286 36.2844 18.8659 35.4337 19.3828 34.8652L25.7227 27.8926C26.8184 26.6868 28.3702 26 30 26C30.1857 26 30.3678 25.9483 30.5258 25.8507C30.6838 25.7531 30.8115 25.6134 30.8945 25.4473L31.8945 23.4473C31.9881 23.2599 32.0206 23.048 31.9873 22.8412C31.954 22.6345 31.8567 22.4434 31.709 22.2949C31.709 22.2949 30.6976 21.2719 29.9062 19.877C29.8349 19.7519 29.7375 19.6437 29.6205 19.5598C29.5035 19.4758 29.3698 19.4181 29.2285 19.3906C29.2993 19.2662 29.3425 19.1281 29.3553 18.9856C29.3681 18.8431 29.3502 18.6995 29.3027 18.5645C29.1131 18.0253 29 17.4947 29 17C29 16.8333 29.2094 15.6298 29.873 14.7109C30.5367 13.792 31.5463 13 33.5 13ZM27.2891 19.8086C27.5615 19.8142 27.8526 19.8394 28.1641 19.8848C28.1271 19.9503 28.0976 20.0197 28.0762 20.0918C28.0595 20.1496 28.0501 20.1843 28.041 20.2148C27.3846 22.3994 25.9397 23.4914 24.4219 23.9102C23.5734 24.1442 22.7635 24.0928 22.0586 23.918C22.0639 23.9114 22.0729 23.907 22.0781 23.9004C22.5646 23.2839 22.9824 22.5672 23.4922 21.9043C24.2569 20.91 25.0768 20.0512 26.5273 19.8496C26.7626 19.8169 27.0166 19.803 27.2891 19.8086ZM29.2695 22.3359C29.4848 22.5953 29.7162 22.9673 29.834 23.0938L29.3086 24.1465C28.5569 24.2161 27.8132 24.332 27.1211 24.6094C27.9473 24.0159 28.7128 23.3474 29.2695 22.3359ZM26.9707 31C26.7157 31.0076 26.4732 31.1124 26.293 31.293L22.293 35.293C22.1916 35.3943 22.1131 35.5163 22.063 35.6506C22.0129 35.7849 21.9922 35.9284 22.0024 36.0714C22.0126 36.2144 22.0534 36.3535 22.1221 36.4794C22.1907 36.6052 22.2857 36.7148 22.4004 36.8008L26.4004 39.8008C26.549 39.9121 26.7257 39.9798 26.9107 39.9964C27.0956 40.013 27.2815 39.9777 27.4476 39.8946C27.6136 39.8115 27.7533 39.6837 27.8508 39.5257C27.9484 39.3677 28.0001 39.1857 28 39V32C28 31.8662 27.9732 31.7337 27.9211 31.6104C27.8691 31.4872 27.7928 31.3756 27.6968 31.2824C27.6008 31.1891 27.4871 31.1161 27.3624 31.0676C27.2377 31.0191 27.1045 30.9961 26.9707 31ZM26 34.4141V37L24.5234 35.8906L26 34.4141ZM12 49C11.448 49 11 49.448 11 50V52C11 52.552 11.448 53 12 53C12.552 53 13 52.552 13 52V50C13 49.448 12.552 49 12 49ZM17 49C16.448 49 16 49.448 16 50V52C16 52.552 16.448 53 17 53C17.552 53 18 52.552 18 52V50C18 49.448 17.552 49 17 49ZM22 49C21.448 49 21 49.448 21 50V52C21 52.552 21.448 53 22 53C22.552 53 23 52.552 23 52V50C23 49.448 22.552 49 22 49ZM27 49C26.448 49 26 49.448 26 50V52C26 52.552 26.448 53 27 53C27.552 53 28 52.552 28 52V50C28 49.448 27.552 49 27 49ZM32 49C31.448 49 31 49.448 31 50V52C31 52.552 31.448 53 32 53C32.552 53 33 52.552 33 52V50C33 49.448 32.552 49 32 49ZM37 49C36.448 49 36 49.448 36 50V52C36 52.552 36.448 53 37 53C37.552 53 38 52.552 38 52V50C38 49.448 37.552 49 37 49ZM42 49C41.448 49 41 49.448 41 50V52C41 52.552 41.448 53 42 53C42.552 53 43 52.552 43 52V50C43 49.448 42.552 49 42 49ZM47 49C46.448 49 46 49.448 46 50V52C46 52.552 46.448 53 47 53C47.552 53 48 52.552 48 52V50C48 49.448 47.552 49 47 49ZM52 49C51.448 49 51 49.448 51 50V52C51 52.552 51.448 53 52 53C52.552 53 53 52.552 53 52V50C53 49.448 52.552 49 52 49Z" fill="white"/>
</svg>
