<svg width="52" height="53" viewBox="0 0 52 53" fill="none" xmlns="http://www.w3.org/2000/svg">
<path d="M7 0C3.1482 0 -3.66964e-06 3.14821 -3.66964e-06 7V45C-3.66964e-06 45.0363 0.00529911 45.0713 0.00585571 45.1074C-0.00751783 45.2202 -0.00157339 45.3345 0.0234338 45.4453C0.256082 49.0903 3.29859 52 7 52H33.0019H42.791C42.9105 52.0219 43.0329 52.0219 43.1523 52H45C48.7021 52 51.7449 49.0893 51.9766 45.4434C52.0013 45.3332 52.0073 45.2196 51.9941 45.1074C51.9947 45.0713 52 45.0363 52 45V7C52 3.14821 48.8518 0 45 0H7ZM7 2H45C47.7682 2 50 4.23179 50 7V43.9316C48.8495 43.6317 47.6676 43.3543 46.4512 43.1035C46.3088 43.0293 46.1507 42.9905 45.9902 42.9902C45.9733 42.9911 45.9563 42.9924 45.9394 42.9941C44.128 42.6331 42.2525 42.325 40.3359 42.0586C40.3292 42.0563 40.3231 42.053 40.3164 42.0508C40.222 42.018 40.1233 41.9996 40.0234 41.9961C39.9902 41.9951 39.957 41.9957 39.9238 41.998H39.9219C39.7865 41.9797 39.6553 41.9573 39.5195 41.9395C44.057 38.0855 47 32.4108 47 26C47 14.4139 37.5861 5 26 5C14.4139 5 5 14.4139 5 26C5 32.4108 7.94298 38.0855 12.4805 41.9395C8.78889 42.4257 5.25795 43.0823 2 43.9316V7C2 4.23179 4.23179 2 7 2ZM26 7C36.5053 7 45 15.4947 45 26C45 32.5328 41.7099 38.2807 36.6992 41.6992C36.6272 41.734 36.5597 41.7773 36.498 41.8281C33.4903 43.825 29.8864 45 26 45C22.1105 45 18.5033 43.824 15.4941 41.8242C15.4342 41.7744 15.3687 41.7318 15.2988 41.6973C15.2982 41.6966 15.2975 41.696 15.2969 41.6953C10.2888 38.2765 7 32.5308 7 26C7 15.4947 15.4947 7 26 7ZM26 20C24.0833 20 22.5186 20.7548 21.5019 21.8984C20.4853 23.0421 20 24.5278 20 26C20 27.4722 20.4853 28.9579 21.5019 30.1016C22.5186 31.2452 24.0833 32 26 32C29.3019 32 32 29.3019 32 26C32 22.6981 29.3019 20 26 20ZM26 22C28.221 22 30 23.779 30 26C30 28.221 28.221 30 26 30C24.5833 30 23.6481 29.5048 22.998 28.7734C22.348 28.0421 22 27.0278 22 26C22 24.9722 22.348 23.9579 22.998 23.2266C23.6481 22.4952 24.5833 22 26 22ZM10.6152 24C10.0622 24 9.61523 24.447 9.61523 25V27C9.61523 27.553 10.0622 28 10.6152 28C11.1682 28 11.6152 27.553 11.6152 27V25C11.6152 24.447 11.1682 24 10.6152 24ZM16.3848 24C15.8318 24 15.3848 24.447 15.3848 25V27C15.3848 27.553 15.8318 28 16.3848 28C16.9378 28 17.3848 27.553 17.3848 27V25C17.3848 24.447 16.9378 24 16.3848 24ZM35.6152 24C35.0622 24 34.6152 24.447 34.6152 25V27C34.6152 27.553 35.0622 28 35.6152 28C36.1682 28 36.6152 27.553 36.6152 27V25C36.6152 24.447 36.1682 24 35.6152 24ZM41.3848 24C40.8318 24 40.3848 24.447 40.3848 25V27C40.3848 27.553 40.8318 28 41.3848 28C41.9378 28 42.3848 27.553 42.3848 27V25C42.3848 24.447 41.9378 24 41.3848 24ZM14.6777 43.6348C17.9506 45.7423 21.8233 47 26 47C30.1767 47 34.0494 45.7423 37.3223 43.6348C38.1082 43.7209 38.873 43.8296 39.6426 43.9336C39.6561 43.9391 39.6698 43.9443 39.6836 43.9492C40.1648 44.1096 40.2611 44.269 40.3105 44.5586C40.36 44.8482 40.2635 45.391 39.8027 46.0566C38.8897 47.3754 36.6242 49.0384 32.8594 50H7C4.56425 50 2.54588 48.2716 2.0957 45.9707C5.93887 44.9299 10.172 44.1285 14.6777 43.6348ZM42.2891 44.332C43.3344 44.5054 44.3611 44.6946 45.3672 44.9004C45.4089 44.982 45.4537 45.0584 45.4863 45.168C45.5821 45.489 45.6434 45.924 45.5723 46.4219C45.4349 47.3832 44.8291 48.6628 42.7051 50H38.2461C39.689 49.1535 40.7581 48.1889 41.4473 47.1934C42.0872 46.269 42.4165 45.2893 42.2891 44.332ZM47.5586 45.3652C48.3614 45.5536 49.133 45.7618 49.9043 45.9707C49.5137 47.9671 47.9419 49.529 45.9414 49.9082C46.9223 48.8231 47.409 47.7095 47.5527 46.7031C47.622 46.2179 47.6104 45.7719 47.5586 45.3652Z" fill="black"/>
</svg>
